<svg width="29" height="19" viewBox="0 0 29 19" fill="none" xmlns="http://www.w3.org/2000/svg">
<g id="twitter" filter="url(#filter0_d_0_1322)">
<path d="M24.6667 2.79746C23.9309 3.12412 23.14 3.34412 22.31 3.44329C23.1575 2.93579 23.8084 2.13162 24.1142 1.17329C23.3217 1.64329 22.4434 1.98496 21.5084 2.16912C20.7609 1.37162 19.6934 0.873291 18.5134 0.873291C15.8642 0.873291 13.9175 3.34496 14.5159 5.91079C11.1067 5.73996 8.08335 4.10662 6.05919 1.62412C4.98419 3.46829 5.50169 5.88079 7.32835 7.10246C6.65669 7.08079 6.02335 6.89662 5.47085 6.58912C5.42585 8.48996 6.78835 10.2683 8.76169 10.6641C8.18419 10.8208 7.55169 10.8575 6.90835 10.7341C7.43002 12.3641 8.94502 13.55 10.7417 13.5833C9.01669 14.9358 6.84335 15.54 4.66669 15.2833C6.48252 16.4475 8.64002 17.1266 10.9567 17.1266C18.575 17.1266 22.8792 10.6925 22.6192 4.92162C23.4209 4.34246 24.1167 3.61996 24.6667 2.79746Z" fill="white"/>
</g>
<defs>
<filter id="filter0_d_0_1322" x="0.666687" y="0.873291" width="28.0001" height="24.2533" filterUnits="userSpaceOnUse" color-interpolation-filters="sRGB">
<feFlood flood-opacity="0" result="BackgroundImageFix"/>
<feColorMatrix in="SourceAlpha" type="matrix" values="0 0 0 0 0 0 0 0 0 0 0 0 0 0 0 0 0 0 127 0" result="hardAlpha"/>
<feOffset dy="4"/>
<feGaussianBlur stdDeviation="2"/>
<feComposite in2="hardAlpha" operator="out"/>
<feColorMatrix type="matrix" values="0 0 0 0 0 0 0 0 0 0 0 0 0 0 0 0 0 0 0.25 0"/>
<feBlend mode="normal" in2="BackgroundImageFix" result="effect1_dropShadow_0_1322"/>
<feBlend mode="normal" in="SourceGraphic" in2="effect1_dropShadow_0_1322" result="shape"/>
</filter>
</defs>
</svg>
